<svg enable-background="new 0 0 539.8 297" preserveAspectRatio="none" viewBox="0 0 539.8 297" xmlns="http://www.w3.org/2000/svg"><path d="m310.1 259.5c-90.7 0-191.2-1.4-214.8-3-13.4-1.3-26.2-9.1-37.1-22.7-21.8-27.2-32.6-71.7-27.4-113.6 6.7-54.2 63.1-51.1 100.5-49 10.1.6 31-5.9 57.4-14.2 58.3-18.1 146.3-45.6 230.7-34.4 72.6 10.6 82.5 58.9 87.3 82.2l.1.7c7.9 38.4.6 103.8-6.1 121.8v.1c-7.2 16.3-21.9 27.5-38.6 29.1-19.8 2.2-83.1 3-152 3zm-203.3-185.4c-13.5 0-26.5 1.1-37.9 4.6-20.5 6.4-31.8 20.2-34.5 42-5 40.3 5.7 84.8 26.6 110.8 10.3 12.8 22.2 20.2 34.6 21.3 41.5 2.8 320.4 5.1 366.1 0 15.3-1.5 28.9-11.8 35.6-26.9 6.7-18 13.5-83.3 6-119.8l-.1-.7c-2.4-11.5-5.9-28.8-17.6-44.5-14-18.7-36.4-30.4-66.6-34.8-83.5-11.1-171.1 16.3-229.1 34.3-27.8 8.7-48 15-58.7 14.4-8.2-.3-16.3-.7-24.4-.7z" fill="#fff"/></svg>