<svg preserveAspectRatio="none" enable-background="new 0 0 156.9 93.7" viewBox="0 0 156.9 93.7" xmlns="http://www.w3.org/2000/svg"><path d="m11.2 68.6c-2.2-1-4.1-2.7-5.4-4.9-1.3-2.6-1.7-5.6-1.2-8.6.5-2.9 1.4-5.7 2.5-8.4 1.3-3.7 2.8-7.3 4.6-10.8 5.9-11.1 15.9-16.5 25.2-23.4 1.3-1 2.7-1.9 4.2-2.7 2.1-.8 4.3-1.4 6.6-1.9 2.3-.7 4.5-1.7 6.8-2.5 4.7-1.7 9.6-2.7 14.5-3 9.3-.4 18.5 3 25.7 9.4.8.8 1.7 1.6 2.6 2.2 2.7 1.5 5.6 2.7 8.6 3.5 3.3 1.3 6.7 2.5 10.1 3.7 7 2.6 13.9 5.3 20.7 8.5 2.8 1.4 5.5 3 8.2 4.7 2.8 1.4 5.1 3.7 6.7 6.6 1 2.7 1.1 5.8.3 8.6-2 6.4-6.1 11.7-11.5 14.7s-11 5.4-16.8 7.2c-9.5 3.4-19 7.4-28.9 8.4-5.1.5-10.1.2-15.2.2-5.2 0-10.4.2-15.6.3-7.6-.2-15.3-1-22.8-2.3-1.8-.2-3.7-.5-5.5-.7-3.4-1.6-6.8-2.8-10.3-3.8-4.3-1.5-8.7-2.8-12.9-4.7-.5.1-.8-.1-1.2-.3z" fill="#f4f4f4"/></svg>