<svg preserveAspectRatio="none" enable-background="new 0 0 688 371" viewBox="0 0 688 371" xmlns="http://www.w3.org/2000/svg"><path d="m16.4 242.1-2.9-29.8c-4.7-7.9-6.7-16.2-1.4-25.8 38.8-88.6 55.4-188.3 300.1-174.2 51 10.7 116.9 3.4 165.6 16.7 17.3-2.1 34.7-4.3 52.1-6.4 101.6-15.5 101.8 24.7 109.5 60.8 7 7.3 14 14.6 21.1 21.8 7.3 5.6 19.9 8.9 18.3 18.1-29.8 69.2-53 191.2-90.3 198.5-159.1 31.2-322.5 28.5-484.3 38.2-44.2-9.6-74.1-24.3-46.4-59.3-10.6-11.8-21.2-23.5-31.8-35.3-7.8-6.5-8.7-14.9-9.6-23.3z" fill="#fff"/></svg>