<svg preserveAspectRatio="none" viewBox="0 0 125.3 76.8" xmlns="http://www.w3.org/2000/svg"><path d="m79.8 65.5c-5 .4-10 .9-15 1.5-4.7.6-9.6 1.6-14.4 1.7-2.2 0-4.3-.2-6.5-.5-6.9-.9-13.8-1.9-20.7-3.1-1.8-.2-3.5-.7-5.2-1.4-2.4-1.1-4.4-3-5.7-5.3-2-3.8-3.2-7.9-3.6-12.2-.5-3.4-1.1-7.6.4-10.8.7-1.2 1.6-2.3 2.6-3.2 6.2-6.1 12.4-12.2 18.6-18.3 4.8-4.7 9.4-12.1 16.4-13.6 2.9-.2 5.8.1 8.6.9 3.2.5 6.4 1 9.6 1.6 6.4 1.1 12.7 3.1 18.6 5.9 8.8 4.6 16.7 11.1 23.1 18.9 4.3 5 8.2 10.3 12 15.7 3.1 4.4 7.9 10.3 3.8 15.7-1.4 1.6-3.1 2.8-5.1 3.4-5.3 1.7-10.9 2.5-16.5 2.1-6.9.1-13.9.4-21 1z" fill="#f4f4f4"/></svg>