<svg preserveAspectRatio="none" enable-background="new 0 0 129.7 68.5" viewBox="0 0 129.7 68.5" xmlns="http://www.w3.org/2000/svg"><path d="m31.3 2.4c1-.1 1.9-.1 2.8-.2 7.2-.3 14.3-.3 21.4 0 6.8.3 12.9 2.3 19.3 3.9 6.4 1.4 12.8 3.1 19 5.3 5.7 2.3 11.1 5.9 15.8 10.5 2 1.8 3.7 4.2 4.8 7 1.1 2.9 1.8 6.1 2 9.3.3 3.4.3 6.7-.1 10.1-.1 2.4-.7 4.7-1.6 6.8-1.9 3.4-8.2 3.4-12 3.8-7.6.7-15.3.9-22.9 1.7-8.4 1.1-16.8 1.7-25.2 2-8 0-15.9-.4-23.7-1.1-3.7 0-7.6-.8-11.1-2.5-2.7-1.7-4.6-4.2-5.2-7-.7-3.9-1.1-7.9-.9-11.8l-.4-12.7c-.4-3.8 0-7.6 1-11.2 1.4-4.2 6.7-10.7 11.6-12.8 1.8-.6 3.6-1 5.4-1.1z" fill="#f4f4f4"/></svg>