<svg enable-background="new 0 0 788.6 371" viewBox="0 0 788.6 371" xmlns="http://www.w3.org/2000/svg"><path d="m35.8 241.4-3.1-29.8c-5.1-7.9-7.3-16.2-1.5-25.8 42-88.6 60-188.3 325.5-174.2 55.3 10.7 126.8 3.4 179.7 16.7 18.8-2.1 37.6-4.3 56.5-6.4 110.2-15.5 110.4 24.7 118.8 60.8 7.6 7.3 15.2 14.6 22.9 21.8 7.9 5.6 21.6 8.9 19.9 18.1-32.3 69.2-57.5 191.2-98 198.5-172.7 31.2-349.9 28.5-525.5 38.2-47.9-9.6-80.4-24.3-50.3-59.3-11.5-11.8-23-23.5-34.5-35.3-8.5-6.5-9.4-14.9-10.4-23.3z" fill="#fff"/></svg>